<?xml version="1.0" encoding="UTF-8"?>
<svg width="51px" height="54px" viewBox="0 0 51 54" version="1.1" xmlns="http://www.w3.org/2000/svg" xmlns:xlink="http://www.w3.org/1999/xlink">
    <!-- Generator: Sketch 52.6 (67491) - http://www.bohemiancoding.com/sketch -->
    <title>hr</title>
    <desc>Created with Sketch.</desc>
    <defs>
        <linearGradient x1="-14.8834012%" y1="113.275638%" x2="64.3128843%" y2="33.3107569%" id="linearGradient-1">
            <stop stop-color="#FEFAE5" stop-opacity="0" offset="0%"></stop>
            <stop stop-color="#FFF3BC" stop-opacity="0.295601223" offset="55.539282%"></stop>
            <stop stop-color="#FFD100" stop-opacity="0.262171649" offset="100%"></stop>
        </linearGradient>
    </defs>
    <g id="assets" stroke="none" stroke-width="1" fill="none" fill-rule="evenodd">
        <g id="z" transform="translate(-1047.000000, -1193.000000)">
            <g id="hr" transform="translate(1047.000000, 1193.000000)">
                <g id="Group">
                    <path d="M28.6972193,0.513316406 C18.8367664,3.43965234 20.8144795,10.3836094 19.7116045,18.0779766 C18.335127,27.6811172 12.3861025,22.7570977 5.55116189,27.943207 C-6.26390779,36.9081562 2.31861885,56.6977852 16.9914652,53.6923477 C24.7827602,52.0965 26.3748381,46.2995156 29.5526189,40.1054414 C33.6632398,32.0927695 40.4797869,34.2773437 46.5943525,29.0464102 C58.9947725,18.4381523 42.6854324,-3.63803906 28.6972193,0.513316406 Z" id="Path" fill="url(#linearGradient-1)"></path>
                    <g transform="translate(3.135246, 6.429688)">
                        <path d="M43.6571496,8.91264062 L32.5020492,8.91264062 L32.5020492,3.92850391 C32.5020492,3.346 32.034166,2.87381641 31.4569672,2.87381641 L13.272541,2.87381641 C12.6953422,2.87381641 12.227459,3.346 12.227459,3.92850391 L12.227459,8.91253516 L1.07235861,8.91253516 C0.495159836,8.91253516 0.0272766393,9.38471875 0.0272766393,9.96722266 L0.0272766393,36.2356914 C0.0272766393,36.8181953 0.495159836,37.2903789 1.07235861,37.2903789 L12.227459,37.2903789 L12.227459,42.2744102 C12.227459,42.8569141 12.6953422,43.3290977 13.272541,43.3290977 L31.4569672,43.3290977 C32.034166,43.3290977 32.5020492,42.8569141 32.5020492,42.2744102 L32.5020492,37.2903789 L43.6571496,37.2903789 C44.2343484,37.2903789 44.7022316,36.8181953 44.7022316,36.2356914 L44.7022316,9.96732812 C44.7022316,9.38482422 44.2343484,8.91264062 43.6571496,8.91264062 Z" id="Path" fill="#2626BC" opacity="0.1"></path>
                        <g transform="translate(0.000000, 0.320312)">
                            <path d="M43.6571496,34.4389219 L1.07235861,34.4389219 C0.495159836,34.4389219 0.0272766393,33.9667383 0.0272766393,33.3842344 L0.0272766393,7.11576562 C0.0272766393,6.53326172 0.495159836,6.06107812 1.07235861,6.06107812 L43.6572541,6.06107812 C44.2344529,6.06107812 44.7023361,6.53326172 44.7023361,7.11576562 L44.7023361,33.3842344 C44.7022316,33.9667383 44.2343484,34.4389219 43.6571496,34.4389219 Z" id="Path" fill="#A8AEB2"></path>
                            <path d="M44.7022316,30.7745156 L44.7022316,7.11576563 C44.7022316,6.53326172 44.2343484,6.06107813 43.6571496,6.06107813 L1.07235861,6.06107813 C0.495159836,6.06107813 0.0272766393,6.53326172 0.0272766393,7.11576563 L0.0272766393,30.7745156 L44.7022316,30.7745156 Z" id="Path" fill="#FBEDAE"></path>
                            <polygon id="Path" fill="#E2E4E5" points="0.0272766393 20.1654141 44.7023361 20.1654141 44.7023361 30.7745156 0.0272766393 30.7745156"></polygon>
                            <g transform="translate(12.227459, 0.000000)">
                                <path d="M19.2295082,40.4776406 L1.04508197,40.4776406 C0.467883197,40.4776406 0,40.005457 0,39.4229531 L0,34.4388164 L20.2745902,34.4388164 L20.2745902,39.4229531 C20.2745902,40.005457 19.806707,40.4776406 19.2295082,40.4776406 Z" id="Path" fill="#A8AEB2"></path>
                                <polygon id="Path" fill="#000000" opacity="0.100000001" points="0 34.4389219 20.2745902 34.4389219 20.2745902 36.3117305 0 36.3117305"></polygon>
                                <g transform="translate(1.985656, 36.386719)" fill="#212121" id="Oval">
                                    <ellipse cx="0.96670082" cy="1.03232813" rx="1" ry="1"></ellipse>
                                    <ellipse cx="15.3365779" cy="1.03232813" rx="1" ry="1"></ellipse>
                                </g>
                                <path d="M1.04508197,0.022359375 L19.2295082,0.022359375 C19.806707,0.022359375 20.2745902,0.494542969 20.2745902,1.07704688 L20.2745902,6.06118359 L0,6.06118359 L0,1.07704687 C0,0.494542969 0.467883197,0.022359375 1.04508197,0.022359375 Z" id="Path" fill="#A8AEB2"></path>
                                <g transform="translate(1.985656, 2.109375)" fill="#212121" id="Oval">
                                    <ellipse cx="15.3365779" cy="0.971578125" rx="1" ry="1"></ellipse>
                                    <ellipse cx="0.96670082" cy="0.971578125" rx="1" ry="1"></ellipse>
                                </g>
                            </g>
                            <g transform="translate(12.122951, 8.542969)">
                                <g>
                                    <ellipse id="Oval" fill="#FFD100" cx="10.2418033" cy="10.3505977" rx="10.2016721" ry="10.2954375"></ellipse>
                                    <path d="M16.9066045,9.32480859 L16.9066045,18.1451602 C15.1195143,19.7029336 12.7900266,20.6458242 10.2421168,20.6458242 C9.63596926,20.6458242 9.0423627,20.5920352 8.46547746,20.4897305 L8.46547746,16.7635195 L5.65734221,16.7635195 C5.24035451,16.7635195 4.92264959,16.3859414 4.99057992,15.9703945 L5.08568238,15.3871523 L5.2581209,14.3303555 L5.44728074,13.1712539 L4.25275205,13.1712539 C3.87965779,13.1712539 3.5776291,12.8653945 3.5776291,12.4888711 L3.5776291,9.32480859 C3.5776291,5.61019922 6.56133811,2.59906641 10.2421168,2.59906641 C13.9228955,2.59906641 16.9066045,5.61019922 16.9066045,9.32480859 Z" id="Path" fill="#FFFFFF"></path>
                                </g>
                                <g transform="translate(5.016393, 8.542969)" fill="#FFD100" id="Path">
                                    <path d="M4.43041598,6.15019922 C4.37816189,6.17867578 3.11883811,6.83891016 0.0692889344,6.84418359 L0.241727459,5.78738672 C2.8586127,5.76101953 3.92982172,5.22312891 3.94131762,5.21785547 C4.19631762,5.08601953 4.51193238,5.18516016 4.64465779,5.44144922 C4.7773832,5.69773828 4.68332582,6.01308984 4.43041598,6.15019922 Z"></path>
                                    <path d="M3.68830328,1.98365625 C3.39965164,1.98365625 3.1657623,1.74751172 3.1657623,1.4563125 L3.1657623,1.21763672 C3.1657623,0.9264375 3.39965164,0.690292969 3.68830328,0.690292969 C3.97695492,0.690292969 4.21084426,0.9264375 4.21084426,1.21763672 L4.21084426,1.4563125 C4.21084426,1.74761719 3.97685041,1.98365625 3.68830328,1.98365625 Z"></path>
                                    <path d="M8.00919467,4.87339453 C7.39071516,4.87339453 6.77234016,4.63587891 6.30153074,4.16074219 C6.09742623,3.95486719 6.09742623,3.62095312 6.30142623,3.41497266 C6.50553074,3.20899219 6.83629918,3.20888672 7.04040369,3.41497266 C7.57454508,3.95391797 8.44363525,3.95391797 8.97777664,3.41497266 C9.51181352,2.87592187 9.51181352,1.99894922 8.97777664,1.45989844 C8.44353074,0.920847656 7.57444057,0.920847656 7.04040369,1.45989844 C6.83629918,1.66577344 6.50553074,1.66587891 6.30142623,1.45989844 C6.09742623,1.25391797 6.09742623,0.920003906 6.30153074,0.714128906 C7.24335861,-0.235933594 8.77534426,-0.236039063 9.7167541,0.714128906 C10.658373,1.66429687 10.658373,3.21046875 9.71685861,4.16074219 C9.24604918,4.63577344 8.62756967,4.87339453 8.00919467,4.87339453 Z"></path>
                                </g>
                            </g>
                            <path d="M41.2807377,11.1420352 L33.838291,11.1420352 C33.5497439,11.1420352 33.31575,10.9058906 33.31575,10.6146914 L33.31575,9.12547266 C33.31575,8.83427344 33.5497439,8.59812891 33.838291,8.59812891 L41.2807377,8.59812891 C41.5692848,8.59812891 41.8032787,8.83427344 41.8032787,9.12547266 L41.8032787,10.6146914 C41.8032787,10.9059961 41.5692848,11.1420352 41.2807377,11.1420352 Z" id="Path" fill="#FFFFFF"></path>
                            <path d="M35.8364877,11.1420352 L33.838291,11.1420352 C33.5497439,11.1420352 33.31575,10.9058906 33.31575,10.6146914 L33.31575,9.12547266 C33.31575,8.83427344 33.5497439,8.59812891 33.838291,8.59812891 L35.8364877,8.59812891 L35.8364877,11.1420352 Z" id="Path" fill="#A8AEB2"></path>
                            <path d="M6.74652664,10.2319453 C6.74652664,9.23853516 5.94568033,8.43032813 4.96131762,8.43032813 C3.97695492,8.43032813 3.17610861,9.23853516 3.17610861,10.2319453 C3.17610861,10.7219531 3.37143443,11.1661875 3.68704918,11.4913477 C3.37153893,11.8165078 3.17610861,12.2608477 3.17610861,12.75075 C3.17610861,13.0501758 3.41668648,13.2929648 3.71338525,13.2929648 C4.01008402,13.2929648 4.25066189,13.0501758 4.25066189,12.75075 C4.25066189,12.3553477 4.56941189,12.0335625 4.96131762,12.0335625 C5.35311885,12.0335625 5.67197336,12.3552422 5.67197336,12.75075 C5.67197336,13.0501758 5.91255123,13.2929648 6.20925,13.2929648 C6.50594877,13.2929648 6.74652664,13.0501758 6.74652664,12.75075 C6.74652664,12.2608477 6.55120082,11.8165078 6.23558607,11.4913477 C6.55120082,11.166293 6.74652664,10.7219531 6.74652664,10.2319453 Z M4.96131762,9.51475781 C5.35311885,9.51475781 5.67197336,9.8364375 5.67197336,10.2319453 C5.67197336,10.6273477 5.35322336,10.9491328 4.96131762,10.9491328 C4.56951639,10.9491328 4.25066189,10.6274531 4.25066189,10.2319453 C4.25076639,9.83654297 4.56951639,9.51475781 4.96131762,9.51475781 Z" id="Shape" fill="#A8AEB2" fill-rule="nonzero"></path>
                            <path d="M6.23286885,15.5522109 L6.23286885,26.8721719 C6.23286885,27.1632656 5.99877049,27.3995156 5.71032787,27.3995156 L4.21272541,27.3995156 C3.92428279,27.3995156 3.69018443,27.1632656 3.69018443,26.8721719 L3.69018443,15.5522109 C3.69018443,15.2611172 3.92428279,15.0248672 4.21272541,15.0248672 L5.71032787,15.0248672 C5.99877049,15.0248672 6.23286885,15.2611172 6.23286885,15.5522109 Z" id="Path" fill="#FFFFFF"></path>
                            <path d="M6.23286885,20.1654141 L6.23286885,26.8721719 C6.23286885,27.1632656 5.99877049,27.3995156 5.71032787,27.3995156 L4.21272541,27.3995156 C3.92428279,27.3995156 3.69018443,27.1632656 3.69018443,26.8721719 L3.69018443,20.1654141 L6.23286885,20.1654141 Z" id="Path" fill="#FFDBED"></path>
                        </g>
                    </g>
                </g>
                <g id="Group" transform="translate(2.612705, 6.222656)" fill="#212121" fill-rule="nonzero">
                    <path d="M13.795082,41.5323281 L31.9795082,41.5323281 C32.8438955,41.5323281 33.5471311,40.8226289 33.5471311,39.9502969 L33.5471311,35.4936094 L44.1796906,35.4936094 C45.0440779,35.4936094 45.7473135,34.7839102 45.7473135,33.9115781 L45.7473135,7.64310938 C45.7473135,6.77077734 45.0440779,6.06107813 44.1796906,6.06107813 L36.5423361,6.06107813 C36.2536844,6.06107813 36.0197951,6.29711719 36.0197951,6.58842188 C36.0197951,6.87972656 36.2536844,7.11576563 36.5423361,7.11576563 L44.1796906,7.11576563 C44.4678197,7.11576563 44.7022316,7.35233203 44.7022316,7.64310938 L44.7022316,33.9115781 C44.7022316,34.2023555 44.4678197,34.4389219 44.1796906,34.4389219 L33.0245902,34.4389219 L12.75,34.4389219 L1.59489959,34.4389219 C1.30677049,34.4389219 1.07235861,34.2023555 1.07235861,33.9115781 L1.07235861,25.8219141 C1.07235861,25.5306094 0.838469262,25.2945703 0.549817623,25.2945703 C0.261165984,25.2945703 0.0272766393,25.5306094 0.0272766393,25.8219141 L0.0272766393,33.9115781 C0.0272766393,34.7839102 0.730512295,35.4936094 1.59489959,35.4936094 L12.227459,35.4936094 L12.227459,39.9502969 C12.227459,40.8227344 12.9306947,41.5323281 13.795082,41.5323281 Z M32.5020492,35.4936094 L32.5020492,39.9502969 C32.5020492,40.2410742 32.2676373,40.4776406 31.9795082,40.4776406 L13.795082,40.4776406 C13.5069529,40.4776406 13.272541,40.2410742 13.272541,39.9502969 L13.272541,35.4936094 L32.5020492,35.4936094 Z" id="Shape"></path>
                    <path d="M0.0272766393,7.64310937 L0.0272766393,22.2718359 C0.0272766393,22.5631406 0.261165984,22.7991797 0.549817623,22.7991797 C0.838469262,22.7991797 1.07235861,22.5631406 1.07235861,22.2718359 L1.07235861,7.64310937 C1.07235861,7.35233203 1.30677049,7.11576562 1.59489959,7.11576562 L33.0245902,7.11576562 C33.3132418,7.11576562 33.5471311,6.87972656 33.5471311,6.58842187 L33.5471311,1.60439062 C33.5471311,0.732058594 32.8438955,0.022359375 31.9795082,0.022359375 L13.795082,0.022359375 C12.9306947,0.022359375 12.227459,0.732058594 12.227459,1.60439062 L12.227459,6.06107812 L1.59489959,6.06107812 C0.730407787,6.06107812 0.0272766393,6.77067187 0.0272766393,7.64310937 Z M13.272541,1.60439062 C13.272541,1.31361328 13.5069529,1.07704687 13.795082,1.07704687 L31.9795082,1.07704687 C32.2676373,1.07704687 32.5020492,1.31361328 32.5020492,1.60439062 L32.5020492,6.06107812 L13.272541,6.06107812 L13.272541,1.60439062 Z" id="Shape"></path>
                </g>
            </g>
        </g>
    </g>
</svg>