<?xml version="1.0" encoding="UTF-8"?>
<svg width="24px" height="24px" viewBox="0 0 24 24" version="1.1" xmlns="http://www.w3.org/2000/svg" xmlns:xlink="http://www.w3.org/1999/xlink">
    <!-- Generator: Sketch 61 (89581) - https://sketch.com -->
    <title>ic_print</title>
    <desc>Created with Sketch.</desc>
    <g id="Assets" stroke="none" stroke-width="1" fill="none" fill-rule="evenodd">
        <g id="Artboard" transform="translate(-840.000000, -64.000000)" fill="#EFA91F" fill-rule="nonzero" stroke="#EFA91F" stroke-width="0.3">
            <g id="ic_print" transform="translate(845.000000, 68.000000)">
                <path d="M12.6293478,3.27619048 L12.225,3.27619048 L12.225,2.36190476 C12.225,1.06004141 11.1815217,-9.68114477e-14 9.9,-9.68114477e-14 L5.01847826,-9.68114477e-14 C3.73695652,-9.68114477e-14 2.69347826,1.06004141 2.69347826,2.36190476 L2.69347826,3.27619048 L2.325,3.27619048 C1.04347826,3.27619048 -1.63424829e-13,4.33623188 -1.63424829e-13,5.63809524 L-1.63424829e-13,9.44761905 C-1.63424829e-13,10.7494824 1.04347826,11.8095238 2.325,11.8095238 L2.69021739,11.8095238 L2.69021739,14.8041408 C2.69021739,15.4534161 3.21195652,15.9834369 3.85108696,15.9834369 L11.0608696,15.9834369 C11.7,15.9834369 12.2217391,15.4534161 12.2217391,14.8041408 L12.2217391,11.8095238 L12.6293478,11.8095238 C13.9108696,11.8095238 14.9543478,10.7494824 14.9543478,9.44761905 L14.9543478,5.63809524 C14.9543478,4.33623188 13.9108696,3.27619048 12.6293478,3.27619048 Z M3.57065217,2.36190476 C3.57065217,1.55362319 4.21956522,0.894409938 5.01521739,0.894409938 L9.89347826,0.894409938 C10.6891304,0.894409938 11.3380435,1.55362319 11.3380435,2.36190476 L11.3380435,3.27619048 L3.57065217,3.27619048 L3.57065217,2.36190476 Z M11.3413043,14.810766 C11.3413043,14.9664596 11.2141304,15.0956522 11.0608696,15.0956522 L3.85108696,15.0956522 C3.69782609,15.0956522 3.57065217,14.9664596 3.57065217,14.810766 L3.57065217,9.87163561 L11.3413043,9.87163561 L11.3413043,14.810766 Z M14.073913,9.45093168 C14.073913,10.2592133 13.425,10.9184265 12.6293478,10.9184265 L12.225,10.9184265 L12.225,9.87163561 L12.8054348,9.87163561 C13.05,9.87163561 13.2456522,9.67287785 13.2456522,9.42443064 C13.2456522,9.17598344 13.05,8.97722567 12.8054348,8.97722567 L2.04456522,8.97722567 C1.8,8.97722567 1.60434783,9.17598344 1.60434783,9.42443064 C1.60434783,9.67287785 1.8,9.87163561 2.04456522,9.87163561 L2.69347826,9.87163561 L2.69347826,10.9184265 L2.325,10.9184265 C1.52934783,10.9184265 0.880434783,10.2592133 0.880434783,9.45093168 L0.880434783,5.64140787 C0.880434783,4.83312629 1.52934783,4.17391304 2.325,4.17391304 L12.6293478,4.17391304 C13.425,4.17391304 14.073913,4.83312629 14.073913,5.64140787 L14.073913,9.45093168 Z" id="Shape"></path>
                <path d="M4.63695652,12.0712215 L10.2423913,12.0712215 C10.4869565,12.0712215 10.6826087,11.8724638 10.6826087,11.6240166 C10.6826087,11.3755694 10.4869565,11.1768116 10.2423913,11.1768116 L4.63695652,11.1768116 C4.3923913,11.1768116 4.19673913,11.3755694 4.19673913,11.6240166 C4.19673913,11.8724638 4.39565217,12.0712215 4.63695652,12.0712215 Z" id="Path"></path>
                <path d="M10.2782609,13.005383 L4.66956522,13.005383 C4.425,13.005383 4.22934783,13.2041408 4.22934783,13.452588 C4.22934783,13.7010352 4.425,13.899793 4.66956522,13.899793 L10.275,13.899793 C10.5195652,13.899793 10.7152174,13.7010352 10.7152174,13.452588 C10.7152174,13.2041408 10.5195652,13.005383 10.2782609,13.005383 Z" id="Path"></path>
                <path d="M12.6195652,5.03188406 L11.726087,5.03188406 C11.4815217,5.03188406 11.2858696,5.23064182 11.2858696,5.47908903 C11.2858696,5.72753623 11.4815217,5.926294 11.726087,5.926294 L12.6195652,5.926294 C12.8641304,5.926294 13.0597826,5.72753623 13.0597826,5.47908903 C13.0597826,5.23064182 12.8641304,5.03188406 12.6195652,5.03188406 Z" id="Path"></path>
            </g>
        </g>
    </g>
</svg>