<?xml version="1.0" encoding="UTF-8"?>
<svg width="58px" height="58px" viewBox="0 0 58 58" version="1.1" xmlns="http://www.w3.org/2000/svg" xmlns:xlink="http://www.w3.org/1999/xlink">
    <!-- Generator: Sketch 52.6 (67491) - http://www.bohemiancoding.com/sketch -->
    <title>voice_over</title>
    <desc>Created with Sketch.</desc>
    <defs>
        <linearGradient x1="-14.8834012%" y1="113.275638%" x2="64.3128843%" y2="33.3107569%" id="linearGradient-1">
            <stop stop-color="#FEFAE5" stop-opacity="0" offset="0%"></stop>
            <stop stop-color="#FFF3BC" stop-opacity="0.295601223" offset="55.539282%"></stop>
            <stop stop-color="#FFD100" stop-opacity="0.262171649" offset="100%"></stop>
        </linearGradient>
    </defs>
    <g id="assets" stroke="none" stroke-width="1" fill="none" fill-rule="evenodd">
        <g id="z" transform="translate(-955.000000, -1192.000000)">
            <g id="voice_over" transform="translate(955.000000, 1192.000000)">
                <g id="customer-service">
                    <path d="M46.5758125,17.5758125 C43.1783945,17.5758125 40.4243008,14.8217187 40.4243008,11.4243008 C40.4243008,5.11476172 35.3094258,0 29,0 C22.6905742,0 17.5758125,5.11476172 17.5758125,11.4241875 C17.5758125,14.8216055 14.8217187,17.5756992 11.4243008,17.5756992 C5.11476172,17.5758125 0,22.6905742 0,29 C0,35.3094258 5.11476172,40.4241875 11.4241875,40.4241875 C14.8216055,40.4241875 17.5756992,43.1782813 17.5756992,46.5756992 C17.5758125,52.8852383 22.6905742,58 29,58 C35.3094258,58 40.4241875,52.8852383 40.4241875,46.5758125 C40.4241875,43.1783945 43.1782813,40.4243008 46.5756992,40.4243008 C52.8852383,40.4241875 58,35.3094258 58,29 C58,22.6905742 52.8852383,17.5758125 46.5758125,17.5758125 Z" id="Path" fill="url(#linearGradient-1)"></path>
                    <g id="Group" transform="translate(5.664062, 3.738281)">
                        <g opacity="0.1" transform="translate(0.566406, 3.058594)" fill="#590BB2">
                            <circle id="Oval" cx="22.7695312" cy="29.6784414" r="11.0312148"></circle>
                            <path d="M44.9371992,25.1093555 L44.5313125,25.1093555 L44.5313125,24.0763437 C44.5313125,22.3767852 43.1534727,20.9989453 41.4539141,20.9989453 L41.1568906,20.9989453 C41.3433516,19.9331953 41.4383945,18.8476211 41.4383945,17.7593281 C41.4383945,13.3126992 39.8632187,9.03984375 36.9914258,5.665875 C36.7978281,5.43840625 36.4541328,5.41575 36.2323281,5.61591797 L35.8598594,5.95213672 C35.8379961,5.91135547 35.8126211,5.87193359 35.7798828,5.83636328 C32.4444297,2.19833594 27.70225,0.111921875 22.7695312,0.111921875 C17.8228789,0.111921875 13.07175,2.20830469 9.73425781,5.86332422 C9.71058203,5.88926562 9.69064453,5.91735937 9.67274609,5.94601953 L9.30673437,5.61569141 C9.08504297,5.41552344 8.74123437,5.43817969 8.54763672,5.66564844 C5.67595703,9.03961719 4.10066797,13.3124727 4.10066797,17.7591016 C4.10066797,18.8472812 4.19582422,19.9329687 4.38217187,20.9987187 L4.08514844,20.9987187 C2.38558984,20.9987187 1.00775,22.3765586 1.00775,24.0761172 L1.00775,25.1091289 L0.601863281,25.1091289 C0.28909375,25.1091289 0.0354570312,25.3627656 0.0354570312,25.6755352 L0.0354570312,29.1116953 C0.0354570312,29.4244648 0.28909375,29.6781016 0.601863281,29.6781016 L1.00775,29.6781016 L1.00775,36.5757969 C1.00775,38.2754687 2.38558984,39.6531953 4.08514844,39.6531953 L7.91813281,39.6531953 C8.54378516,39.6531953 9.05094531,39.1460352 9.05094531,38.5203828 L9.05094531,22.1317578 C9.05094531,21.5061055 8.54378516,20.9989453 7.91813281,20.9989453 L7.61714453,20.9989453 C7.39194141,19.9398789 7.27650781,18.8515859 7.27650781,17.7593281 C7.27650781,14.0894687 8.56927344,10.5623437 10.9273359,7.76984766 C11.1118711,7.55132812 11.0912539,7.22655078 10.8789648,7.03499219 L10.4982266,6.69141016 C10.5234883,6.6718125 10.5484102,6.65164844 10.5707266,6.62729297 C13.6942305,3.20665234 18.1405195,1.24473437 22.7695312,1.24473437 C27.3856289,1.24473437 31.8234219,3.19725 34.9448867,6.60169141 C34.9754727,6.63499609 35.0096836,6.66252344 35.0455937,6.68687891 L34.6599844,7.03487891 C34.4476953,7.2264375 34.4270781,7.55121484 34.6116133,7.76973437 C36.9696758,10.5622305 38.2624414,14.0893555 38.2624414,17.7592148 C38.2624414,18.8514727 38.1470078,19.9397656 37.9218047,20.998832 L37.6208164,20.998832 C36.9951641,20.998832 36.4880039,21.5059922 36.4880039,22.1316445 L36.4880039,38.5206094 C36.4880039,39.1462617 36.9951641,39.6534219 37.6208164,39.6534219 L38.6310586,39.6534219 L38.6310586,41.0909609 C38.6310586,43.2112461 36.906125,44.9360664 34.7859531,44.9360664 L29.7551328,44.9360664 C29.7189961,44.9360664 29.6838789,44.9402578 29.6495547,44.9467148 C29.4480273,44.474332 28.9794961,44.1430977 28.4334805,44.1430977 L24.1089687,44.1430977 C23.3790977,44.1430977 22.7873164,44.7347656 22.7873164,45.46475 C22.7873164,46.1947344 23.3789844,46.7864023 24.1089687,46.7864023 L28.4335937,46.7864023 C28.9531016,46.7864023 29.4012422,46.4859805 29.6172695,46.0500742 C29.6616758,46.0612891 29.7073281,46.0689922 29.7552461,46.0689922 L34.7860664,46.0689922 C37.5308711,46.0689922 39.7639844,43.8358789 39.7639844,41.0910742 L39.7639844,39.6535352 L41.4539141,39.6535352 C43.1534727,39.6535352 44.5313125,38.2756953 44.5313125,36.5761367 L44.5313125,29.6784414 L44.9371992,29.6784414 C45.2499687,29.6784414 45.5036055,29.4248047 45.5036055,29.1120352 L45.5036055,25.675875 C45.5036055,25.3629922 45.2499687,25.1093555 44.9371992,25.1093555 Z" id="Path"></path>
                        </g>
                        <g>
                            <g transform="translate(0.566406, 5.437500)">
                                <g transform="translate(11.667969, 13.140625)">
                                    <circle id="Oval" fill="#FFE783" cx="11.1015625" cy="11.1002031" r="11.0312148"></circle>
                                    <circle id="Oval" fill="#FFC136" cx="11.1015625" cy="11.1002031" r="8.67949609"></circle>
                                    <g transform="translate(5.210938, 5.210938)" fill="#FFFFFF">
                                        <path d="M5.890625,11.7111289 C2.68046094,11.7111289 0.068875,9.09942969 0.068875,5.88926562 C0.068875,2.67910156 2.68046094,0.067515625 5.890625,0.067515625 C9.10078906,0.067515625 11.712375,2.67910156 11.712375,5.88926562 C11.712375,9.09942969 9.10078906,11.7111289 5.890625,11.7111289 Z M5.890625,1.20044141 C3.30509375,1.20044141 1.2016875,3.30384766 1.2016875,5.88937891 C1.2016875,8.47491016 3.30509375,10.5784297 5.890625,10.5784297 C8.47615625,10.5784297 10.5795625,8.47502344 10.5795625,5.88937891 C10.5795625,3.30384766 8.47615625,1.20044141 5.890625,1.20044141 Z" id="Shape" fill-rule="nonzero"></path>
                                        <path d="M5.890625,11.7111289 C4.02907422,11.7111289 3.02460937,8.71155469 3.02460937,5.88926562 C3.02460937,3.06708984 4.02907422,0.067515625 5.890625,0.067515625 C7.75217578,0.067515625 8.75664063,3.06708984 8.75664063,5.88926562 C8.75664063,8.71155469 7.75217578,11.7111289 5.890625,11.7111289 Z M5.890625,1.20044141 C5.18397656,1.20044141 4.15742187,3.02698828 4.15742187,5.88937891 C4.15742187,7.21680859 4.37979297,8.45576562 4.78341406,9.37844141 C5.10728516,10.1186211 5.53152344,10.5784297 5.890625,10.5784297 C6.59727344,10.5784297 7.62382813,8.75176953 7.62382813,5.88937891 C7.62382813,4.5620625 7.40145703,3.32299219 6.99783594,2.40042969 C6.67396484,1.66013672 6.24972656,1.20044141 5.890625,1.20044141 Z" id="Shape" fill-rule="nonzero"></path>
                                        <g transform="translate(0.906250, 2.605469)" id="Path">
                                            <path d="M4.984375,2.19267187 C3.13086719,2.19267187 1.38667578,1.77964844 0.318546875,1.08772656 C0.0559609375,0.917691406 -0.0189179688,0.566972656 0.151117188,0.304386719 C0.321152344,0.0420273437 0.671984375,-0.0328515625 0.934457031,0.136957031 C1.82654687,0.714804687 3.34055078,1.05974609 4.984375,1.05974609 C6.62695313,1.05974609 8.19034766,0.698605469 9.06442578,0.117132812 C9.32474609,-0.0560742188 9.67637109,0.0146132812 9.84980469,0.275046875 C10.0230117,0.53559375 9.95232422,0.887105469 9.69189062,1.06042578 C8.62602734,1.76945312 6.86620312,2.19267187 4.984375,2.19267187 Z"></path>
                                            <path d="M0.5781875,6.554 C0.395917969,6.554 0.216820313,6.46609375 0.107503906,6.30330859 C-0.0669492187,6.04366797 0.00215234375,5.69181641 0.261792969,5.51736328 C1.32663672,4.80210547 3.092125,4.37492188 4.984375,4.37492188 C6.83765625,4.37492188 8.58184766,4.78794531 9.65008984,5.47986719 C9.91267578,5.64990234 9.98766797,6.00062109 9.81763281,6.26309375 C9.64759766,6.52556641 9.29699219,6.60101172 9.03429297,6.43063672 C8.14197656,5.85278906 6.62797266,5.50784766 4.984375,5.50784766 C3.33330078,5.50784766 1.76571484,5.87182031 0.893449219,6.45782422 C0.79659375,6.52284766 0.686710937,6.554 0.5781875,6.554 Z"></path>
                                        </g>
                                    </g>
                                </g>
                                <g transform="translate(0.000000, 15.519531)">
                                    <g>
                                        <path d="M7.91813281,18.6963906 L4.08514844,18.6963906 C2.38558984,18.6963906 1.00775,17.3185508 1.00775,15.6189922 L1.00775,3.1193125 C1.00775,1.41975391 2.38558984,0.0419140625 4.08514844,0.0419140625 L7.91813281,0.0419140625 C8.54378516,0.0419140625 9.05094531,0.549074219 9.05094531,1.17472656 L9.05094531,17.5636914 C9.05094531,18.1892305 8.54378516,18.6963906 7.91813281,18.6963906 Z" id="Path" fill="#FFD100"></path>
                                        <path d="M7.91813281,0.0419140625 L6.34148437,0.0419140625 L6.34148437,18.6965039 L7.91813281,18.6965039 C8.54378516,18.6965039 9.05094531,18.1893438 9.05094531,17.5636914 L9.05094531,1.17472656 C9.05094531,0.549074219 8.54378516,0.0419140625 7.91813281,0.0419140625 Z" id="Path" fill="#F6E388"></path>
                                        <circle id="Oval" fill="#FFE783" cx="6.34148438" cy="14.8763203" r="1.35473047"></circle>
                                        <path d="M2.07451953,8.72129688 L0.601863281,8.72129688 C0.28909375,8.72129688 0.0354570313,8.46766016 0.0354570313,8.15489063 L0.0354570313,4.71873047 C0.0354570313,4.40596094 0.28909375,4.15232422 0.601863281,4.15232422 L2.07451953,4.15232422 C2.38728906,4.15232422 2.64092578,4.40596094 2.64092578,4.71873047 L2.64092578,8.15489062 C2.64092578,8.46777344 2.38740234,8.72129687 2.07451953,8.72129687 Z" id="Path" fill="#A8AEB2"></path>
                                    </g>
                                    <g transform="translate(36.476562, 0.000000)">
                                        <path d="M1.14436719,18.6963906 L4.97735156,18.6963906 C6.67691016,18.6963906 8.05475,17.3185508 8.05475,15.6189922 L8.05475,3.1193125 C8.05475,1.41975391 6.67691016,0.0419140625 4.97735156,0.0419140625 L1.14436719,0.0419140625 C0.518714844,0.0419140625 0.0115546875,0.549074219 0.0115546875,1.17472656 L0.0115546875,17.5636914 C0.0115546875,18.1892305 0.518714844,18.6963906 1.14436719,18.6963906 Z" id="Path" fill="#FFD100"></path>
                                        <path d="M1.14436719,0.0419140625 L2.72101562,0.0419140625 L2.72101562,18.6965039 L1.14436719,18.6965039 C0.518714844,18.6965039 0.0115546875,18.1893438 0.0115546875,17.5636914 L0.0115546875,1.17472656 C0.0115546875,0.549074219 0.518714844,0.0419140625 1.14436719,0.0419140625 Z" id="Path" fill="#F6E388"></path>
                                        <circle id="Oval" fill="#FFE783" cx="2.72101562" cy="14.8763203" r="1.35473047"></circle>
                                        <path d="M6.98798047,8.72129688 L8.46063672,8.72129688 C8.77340625,8.72129688 9.02704297,8.46766016 9.02704297,8.15489063 L9.02704297,4.71873047 C9.02704297,4.40596094 8.77340625,4.15232422 8.46063672,4.15232422 L6.98798047,4.15232422 C6.67521094,4.15232422 6.42157422,4.40596094 6.42157422,4.71873047 L6.42157422,8.15489062 C6.42157422,8.46777344 6.67509766,8.72129687 6.98798047,8.72129687 Z" id="Path" fill="#A8AEB2"></path>
                                    </g>
                                </g>
                                <g transform="translate(4.078125, 0.000000)" fill="#A8AEB2" id="Path">
                                    <path d="M33.843793,15.5614453 L37.0787656,15.5614453 C37.2652266,14.4956953 37.3602695,13.4100078 37.3602695,12.3218281 C37.3602695,7.87519922 35.7850938,3.60234375 32.9133008,0.228375 C32.7197031,0.00090625 32.3760078,-0.02175 32.1542031,0.178417969 L30.5818594,1.59749219 C30.3695703,1.78916406 30.3489531,2.11382812 30.5334883,2.33234766 C32.8915508,5.12484375 34.1843164,8.65196875 34.1843164,12.3218281 C34.1844297,13.4140859 34.0688828,14.5023789 33.843793,15.5614453 Z"></path>
                                    <path d="M3.53901953,15.5614453 C3.31392969,14.5023789 3.19838281,13.4140859 3.19838281,12.3218281 C3.19838281,8.65196875 4.49114844,5.12473047 6.84921094,2.33234766 C7.03374609,2.11382812 7.01312891,1.78905078 6.80083984,1.59749219 L5.22849609,0.178417969 C5.00669141,-0.02175 4.66299609,0.00090625 4.46939844,0.228375 C1.59771875,3.60234375 0.0224296875,7.87519922 0.0224296875,12.3218281 C0.0224296875,13.4100078 0.117585938,14.4956953 0.303933594,15.5614453 L3.53901953,15.5614453 Z"></path>
                                </g>
                            </g>
                            <path d="M24.6754883,46.7865156 L29,46.7865156 C29.7298711,46.7865156 30.3216523,46.1948477 30.3216523,45.4648633 C30.3216523,44.7349922 29.7299844,44.1432109 29,44.1432109 L24.6754883,44.1432109 C23.9456172,44.1432109 23.3538359,44.7348789 23.3538359,45.4648633 C23.3539492,46.1947344 23.9456172,46.7865156 24.6754883,46.7865156 Z" id="Path" fill="#A8AEB2"></path>
                            <g fill="#212121" fill-rule="nonzero" id="Shape">
                                <path d="M34.9335586,29.6783281 C34.9335586,23.283375 29.7308906,18.080707 23.3359375,18.080707 C16.9409844,18.080707 11.7383164,23.283375 11.7383164,29.6783281 C11.7383164,36.0732813 16.9409844,41.2760625 23.3359375,41.2760625 C29.7308906,41.2760625 34.9335586,36.0732813 34.9335586,29.6783281 Z M12.8711289,29.6783281 C12.8711289,23.9080078 17.5656172,19.2135195 23.3359375,19.2135195 C29.1062578,19.2135195 33.8007461,23.9080078 33.8007461,29.6783281 C33.8007461,35.4486484 29.1062578,40.14325 23.3359375,40.14325 C17.5656172,40.14325 12.8711289,35.4487617 12.8711289,29.6783281 Z"></path>
                                <path d="M45.664125,24.55575 L45.664125,24.076457 C45.664125,22.1891914 44.2219414,20.632707 42.3818008,20.4505508 C42.5068633,19.5589141 42.571207,18.6566289 42.571207,17.7593281 C42.571207,13.1955664 40.9439219,8.77023437 37.989207,5.29873047 C37.7954961,5.07114844 37.5243008,4.93498437 37.2260312,4.91538672 C36.9273086,4.89510937 36.6411602,4.99513672 36.4193555,5.19541797 L36.0537969,5.52540625 C32.736582,2.07995703 28.1262617,0.111921875 23.3359375,0.111921875 C18.5440273,0.111921875 13.9355195,2.07916406 10.6179648,5.52506641 L10.2526328,5.19530469 C10.0307148,4.99502344 9.744,4.89544922 9.44595703,4.91527344 C9.14757422,4.93487109 8.87649219,5.07103516 8.68266797,5.29861719 C5.72795312,8.77023437 4.10066797,13.1954531 4.10066797,17.7592148 C4.10066797,18.6564023 4.16501172,19.5588008 4.29007422,20.4504375 C2.44993359,20.6325938 1.00775,22.1890781 1.00775,24.0763437 L1.00775,24.5556367 C0.459128906,24.6340273 0.0354570312,25.1057305 0.0354570312,25.6757617 L0.0354570312,29.1119219 C0.0354570312,29.6818398 0.459015625,30.1536562 1.00775,30.2320469 L1.00775,36.5761367 C1.00775,38.585293 2.64239844,40.2199414 4.65155469,40.2199414 L8.48453906,40.2199414 C9.42148828,40.2199414 10.1837578,39.4576719 10.1837578,38.5207227 L10.1837578,29.3739414 C10.1837578,29.0610586 9.93012109,28.8075352 9.61735156,28.8075352 C9.30458203,28.8075352 9.05094531,29.0610586 9.05094531,29.3739414 L9.05094531,38.5207227 C9.05094531,38.8330391 8.79685547,39.0871289 8.48453906,39.0871289 L4.65155469,39.0871289 C3.26691797,39.0871289 2.1405625,37.9607734 2.1405625,36.5761367 L2.1405625,30.2447344 L2.64092578,30.2447344 C3.26555859,30.2447344 3.77373828,29.7365547 3.77373828,29.1119219 L3.77373828,25.6757617 C3.77373828,25.0511289 3.26555859,24.5429492 2.64092578,24.5429492 L2.1405625,24.5429492 L2.1405625,24.0763437 C2.1405625,22.691707 3.26703125,21.5652383 4.65155469,21.5652383 L4.94733203,21.5652383 C4.94778516,21.5652383 4.948125,21.5653516 4.94857812,21.5653516 L8.18355078,21.5653516 C8.18423047,21.5653516 8.18491016,21.5652383 8.18547656,21.5652383 L8.48453906,21.5652383 C8.79685547,21.5652383 9.05094531,21.8193281 9.05094531,22.1316445 L9.05094531,25.9073086 C9.05094531,26.2201914 9.30458203,26.4737148 9.61735156,26.4737148 C9.93012109,26.4737148 10.1837578,26.2201914 10.1837578,25.9073086 L10.1837578,22.1316445 C10.1837578,21.2509961 9.51030078,20.5250898 8.65151562,20.4409219 C8.49110937,19.5566484 8.40932031,18.6567422 8.40932031,17.7593281 C8.40932031,14.2391133 9.65835937,10.8211914 11.9264766,8.13540625 C12.3106133,7.68046875 12.2659805,7.0125625 11.8248633,6.61449219 L11.4595312,6.28473047 C14.5625312,3.07626562 18.8638203,1.24473437 23.3359375,1.24473437 C27.8066953,1.24473437 32.1101367,3.07626562 35.2125703,6.28450391 L34.8470117,6.61449219 C34.4058945,7.0125625 34.3612617,7.68046875 34.7452852,8.13529297 C37.0134023,10.8211914 38.2625547,14.2391133 38.2625547,17.7593281 C38.2625547,18.6567422 38.1807656,19.5566484 38.0203594,20.4409219 C37.1614609,20.5250898 36.4881172,21.2509961 36.4881172,22.1316445 L36.4881172,25.9073086 C36.4881172,26.2201914 36.7417539,26.4737148 37.0545234,26.4737148 C37.367293,26.4737148 37.6209297,26.2201914 37.6209297,25.9073086 L37.6209297,22.1316445 C37.6209297,21.8193281 37.8750195,21.5652383 38.1873359,21.5652383 L38.4863984,21.5652383 C38.4870781,21.5652383 38.4877578,21.5653516 38.4883242,21.5653516 L41.7232969,21.5653516 C41.72375,21.5653516 41.7240898,21.5652383 41.724543,21.5652383 L42.0203203,21.5652383 C43.404957,21.5652383 44.5314258,22.691707 44.5314258,24.0763437 L44.5314258,24.5429492 L44.0310625,24.5429492 C43.4064297,24.5429492 42.89825,25.0511289 42.89825,25.6757617 L42.89825,29.1119219 C42.89825,29.7365547 43.4064297,30.2447344 44.0310625,30.2447344 L44.5314258,30.2447344 L44.5314258,36.5761367 C44.5314258,37.9607734 43.404957,39.0871289 42.0203203,39.0871289 L39.7651172,39.0871289 C39.7647773,39.0871289 39.7644375,39.0870156 39.7639844,39.0870156 C39.7635312,39.0870156 39.7633047,39.0871289 39.7628516,39.0871289 L38.1872227,39.0871289 C37.8749062,39.0871289 37.6208164,38.8330391 37.6208164,38.5207227 L37.6208164,29.3739414 C37.6208164,29.0610586 37.3671797,28.8075352 37.0544102,28.8075352 C36.7416406,28.8075352 36.4880039,29.0610586 36.4880039,29.3739414 L36.4880039,38.5207227 C36.4880039,39.4576719 37.2502734,40.2199414 38.1872227,40.2199414 L39.1974648,40.2199414 L39.1974648,41.0909609 C39.1974648,43.2112461 37.4725312,44.9360664 35.3523594,44.9360664 L30.8111406,44.9360664 C30.5817461,44.151707 29.8573125,43.5766914 28.9998867,43.5766914 L24.675375,43.5766914 C23.6343203,43.5766914 22.7873164,44.4236953 22.7873164,45.46475 C22.7873164,46.5058047 23.6343203,47.3528086 24.675375,47.3528086 L29,47.3528086 C29.8295586,47.3528086 30.5343945,46.8142695 30.787125,46.0688789 L35.3524727,46.0688789 C38.0972773,46.0688789 40.3303906,43.8357656 40.3303906,41.0909609 L40.3303906,40.2199414 L42.020207,40.2199414 C44.0294766,40.2199414 45.664125,38.585293 45.664125,36.5761367 L45.664125,30.2320469 C46.2127461,30.1536562 46.636418,29.6819531 46.636418,29.1119219 L46.636418,25.6757617 C46.636418,25.1058437 46.2127461,24.6341406 45.664125,24.55575 Z M2.64171875,29.1119219 L1.16826953,29.1119219 L1.16826953,25.6757617 L2.64092578,25.6757617 L2.64171875,29.1119219 Z M7.27650781,17.7592148 C7.27650781,18.6531172 7.35138672,19.5495117 7.49944531,20.4324258 L5.43081641,20.4324258 C5.29975,19.5476992 5.23348047,18.650625 5.23348047,17.7592148 C5.23348047,13.4765039 6.75586719,9.32372656 9.52128906,6.06111328 L11.0388047,7.43079688 C8.61243359,10.3168633 7.27650781,13.9833242 7.27650781,17.7592148 Z M35.6330703,7.43091016 L37.1505859,6.06122656 C39.9160078,9.32395313 41.4383945,13.4766172 41.4383945,17.7593281 C41.4383945,18.6507383 41.3720117,19.5476992 41.2410586,20.4325391 L39.1724297,20.4325391 C39.3204883,19.549625 39.3953672,18.6533438 39.3953672,17.7593281 C39.3953672,13.9833242 38.0595547,10.3168633 35.6330703,7.43091016 Z M29,46.2201094 L24.6754883,46.2201094 C24.2590664,46.2201094 23.9202422,45.8812852 23.9202422,45.4648633 C23.9202422,45.0484414 24.2590664,44.7096172 24.6754883,44.7096172 L29,44.7096172 C29.4164219,44.7096172 29.7552461,45.0484414 29.7552461,45.4648633 C29.7552461,45.8812852 29.4164219,46.2201094 29,46.2201094 Z M44.0309492,25.6757617 L45.5036055,25.6757617 L45.5036055,29.1119219 L44.0309492,29.1119219 L44.0309492,25.6757617 Z"></path>
                            </g>
                        </g>
                    </g>
                </g>
            </g>
        </g>
    </g>
</svg>